<svg width="10" height="10" viewBox="0 0 10 10" fill="none" xmlns="http://www.w3.org/2000/svg">
<path d="M2.02051 0.231357L0.235371 2.0165C-0.103806 2.35568 -0.0681033 2.89122 0.288925 3.15899L1.73489 4.28363C1.82415 4.35504 1.91341 4.46215 1.94911 4.56926L4.05558 9.22858C4.26979 9.71057 4.91245 9.81768 5.30518 9.4428L7.12602 7.62195L9.39305 9.88899C9.53586 10.0318 9.76793 10.0318 9.89289 9.88899C10.0357 9.74617 10.0357 9.51411 9.89289 9.38915L7.62586 7.12211L9.44671 5.30127C9.83944 4.90854 9.73233 4.28374 9.23249 4.05167L4.57317 1.9452C4.46606 1.89164 4.35895 1.82024 4.28754 1.73098L3.1629 0.285013C2.89513 -0.0720158 2.35959 -0.0898666 2.02041 0.231459L2.02051 0.231357Z" fill="#F79009"/>
</svg>
